<svg width="33" height="31" viewBox="0 0 33 31" fill="none" xmlns="http://www.w3.org/2000/svg">
<path d="M9.65913 14.9881C9.76323 14.8776 9.88809 14.7886 10.0266 14.7263C10.1651 14.6639 10.3145 14.6295 10.4663 14.625C10.6181 14.6204 10.7693 14.6458 10.9113 14.6997C11.0533 14.7536 11.1832 14.8349 11.2938 14.939C16.6147 19.9513 21.9537 23.001 28.2365 24.5554C29.0841 22.2429 29.1593 19.6977 28.4272 17.2146C27.456 13.9201 25.1941 11.0497 21.8879 8.91422C18.9366 7.00785 15.9867 6.51138 13.1329 6.03154C9.53267 5.42595 6.13185 4.85361 2.8864 1.41738C2.52507 1.03726 2.03294 0.884782 1.56249 1.00836C1.02484 1.15289 0.664233 1.57781 0.491518 2.28023C0.0868305 3.92427 0.346987 8.53193 1.48517 13.3961C3.31277 21.2109 6.22941 25.1653 8.35474 27.1071C11.1008 29.614 14.6867 31.0022 18.2501 31.0022C18.9218 31.0033 19.5926 30.954 20.2569 30.8548C23.2711 30.3981 25.7802 28.8841 27.1944 26.6814C20.7273 24.9991 15.2026 21.7999 9.70611 16.625C9.59536 16.5207 9.50627 16.3956 9.44395 16.2568C9.38164 16.118 9.34731 15.9683 9.34295 15.8163C9.33859 15.6642 9.36427 15.5128 9.41852 15.3707C9.47278 15.2286 9.55455 15.0986 9.65913 14.9881Z" fill="#256963"/>
<path d="M31.7782 25.2636C30.562 25.0764 29.384 24.8416 28.2372 24.5576C28.0014 25.2013 27.708 25.8224 27.3606 26.4133C27.3078 26.5037 27.2522 26.5933 27.1951 26.6814C28.59 27.0425 30.0025 27.332 31.427 27.5486C31.5786 27.5753 31.7339 27.5714 31.884 27.5372C32.034 27.503 32.1758 27.4392 32.3008 27.3495C32.4259 27.2599 32.5318 27.1461 32.6124 27.015C32.6929 26.8838 32.7465 26.7379 32.7699 26.5858C32.7933 26.4337 32.7862 26.2785 32.7488 26.1292C32.7115 25.9799 32.6447 25.8395 32.5524 25.7164C32.4601 25.5932 32.3441 25.4898 32.2113 25.412C32.0785 25.3342 31.9315 25.2838 31.7789 25.2636H31.7782Z" fill="#256963"/>
</svg>
