<svg width="31" height="42" viewBox="0 0 31 42" fill="none" xmlns="http://www.w3.org/2000/svg">
<path d="M15.5 0.270844C7.39158 0.270844 0.8125 6.19266 0.8125 13.4896C0.8125 25.2396 15.5 41.3958 15.5 41.3958C15.5 41.3958 30.1875 25.2396 30.1875 13.4896C30.1875 6.19266 23.6084 0.270844 15.5 0.270844ZM15.5 20.8333C14.338 20.8333 13.2022 20.4888 12.236 19.8432C11.2699 19.1977 10.5169 18.2801 10.0722 17.2066C9.62754 16.1331 9.5112 14.9518 9.73789 13.8122C9.96457 12.6725 10.5241 11.6257 11.3457 10.8041C12.1674 9.98246 13.2142 9.42292 14.3538 9.19623C15.4935 8.96954 16.6747 9.08589 17.7483 9.53055C18.8218 9.97522 19.7393 10.7282 20.3849 11.6944C21.0304 12.6605 21.375 13.7964 21.375 14.9583C21.3733 16.516 20.7538 18.0093 19.6524 19.1107C18.551 20.2121 17.0576 20.8316 15.5 20.8333Z" fill="#727272"/>
</svg>
