<svg width="48" height="32" viewBox="0 0 48 32" fill="none" xmlns="http://www.w3.org/2000/svg">
<path fill-rule="evenodd" clip-rule="evenodd" d="M0.3125 28.3906C0.3125 29.9698 1.62417 31.25 3.24219 31.25H44.2578C45.8758 31.25 47.1875 29.9698 47.1875 28.3906C47.1875 26.8114 45.8758 25.5312 44.2578 25.5312H3.24219C1.62417 25.5312 0.3125 26.8114 0.3125 28.3906Z" fill="#727272"/>
<path fill-rule="evenodd" clip-rule="evenodd" d="M0.3125 16C0.3125 17.5792 1.62417 18.8594 3.24219 18.8594H44.2578C45.8758 18.8594 47.1875 17.5792 47.1875 16C47.1875 14.4208 45.8758 13.1406 44.2578 13.1406H3.24219C1.62417 13.1406 0.3125 14.4208 0.3125 16Z" fill="#727272"/>
<path fill-rule="evenodd" clip-rule="evenodd" d="M0.3125 3.60938C0.3125 5.18856 1.62417 6.46875 3.24219 6.46875H44.2578C45.8758 6.46875 47.1875 5.18856 47.1875 3.60938C47.1875 2.03019 45.8758 0.75 44.2578 0.75H3.24219C1.62417 0.75 0.3125 2.03019 0.3125 3.60938Z" fill="#727272"/>
</svg>
