<svg width="32" height="34" viewBox="0 0 32 34" fill="none" xmlns="http://www.w3.org/2000/svg">
<path d="M16 16.6666C17.6441 16.6666 19.2512 16.1791 20.6182 15.2657C21.9852 14.3523 23.0506 13.0541 23.6797 11.5352C24.3089 10.0162 24.4735 8.34488 24.1528 6.73241C23.832 5.11994 23.0403 3.6388 21.8778 2.47627C20.7153 1.31375 19.2342 0.522061 17.6217 0.201322C16.0092 -0.119418 14.3379 0.0451971 12.8189 0.674351C11.3 1.3035 10.0018 2.36894 9.08841 3.73592C8.17502 5.10291 7.6875 6.71004 7.6875 8.3541C7.6875 10.5587 8.56328 12.673 10.1222 14.2319C11.6811 15.7908 13.7954 16.6666 16 16.6666ZM16 19.0416C10.8477 19.0416 0.5625 22.2241 0.5625 28.5416V33.2916H31.4375V28.5416C31.4375 22.2241 21.1523 19.0416 16 19.0416Z" fill="#727272"/>
</svg>
