<svg width="153" height="48" viewBox="0 0 153 48" fill="none" xmlns="http://www.w3.org/2000/svg">
<path d="M11.6591 22.9881C11.7632 22.8776 11.8881 22.7886 12.0266 22.7263C12.1651 22.6639 12.3145 22.6295 12.4663 22.625C12.6181 22.6204 12.7693 22.6458 12.9113 22.6997C13.0533 22.7536 13.1832 22.8349 13.2938 22.939C18.6147 27.9513 23.9537 31.001 30.2365 32.5554C31.0841 30.2429 31.1593 27.6977 30.4272 25.2146C29.456 21.9201 27.1941 19.0497 23.8879 16.9142C20.9366 15.0078 17.9867 14.5114 15.1329 14.0315C11.5327 13.426 8.13185 12.8536 4.8864 9.41738C4.52507 9.03726 4.03294 8.88478 3.56249 9.00836C3.02484 9.15289 2.66423 9.57781 2.49152 10.2802C2.08683 11.9243 2.34699 16.5319 3.48517 21.3961C5.31277 29.2109 8.22941 33.1653 10.3547 35.1071C13.1008 37.614 16.6867 39.0022 20.2501 39.0022C20.9218 39.0033 21.5926 38.954 22.2569 38.8548C25.2711 38.3981 27.7802 36.8841 29.1944 34.6814C22.7273 32.9991 17.2026 29.7999 11.7061 24.625C11.5954 24.5207 11.5063 24.3956 11.444 24.2568C11.3816 24.118 11.3473 23.9683 11.3429 23.8163C11.3386 23.6642 11.3643 23.5128 11.4185 23.3707C11.4728 23.2286 11.5545 23.0986 11.6591 22.9881Z" fill="#256963"/>
<path d="M33.7782 33.2636C32.562 33.0764 31.384 32.8416 30.2372 32.5576C30.0014 33.2013 29.708 33.8224 29.3606 34.4133C29.3078 34.5037 29.2522 34.5933 29.1951 34.6814C30.59 35.0425 32.0025 35.332 33.427 35.5486C33.5786 35.5753 33.7339 35.5714 33.884 35.5372C34.034 35.503 34.1758 35.4392 34.3008 35.3495C34.4259 35.2599 34.5318 35.1461 34.6124 35.015C34.6929 34.8838 34.7465 34.7379 34.7699 34.5858C34.7933 34.4337 34.7862 34.2785 34.7488 34.1292C34.7115 33.9799 34.6447 33.8395 34.5524 33.7164C34.4601 33.5932 34.3441 33.4898 34.2113 33.412C34.0785 33.3342 33.9315 33.2838 33.7789 33.2636H33.7782Z" fill="#256963"/>
<path d="M52.368 10.848C53.208 10.848 53.94 10.956 54.564 11.172C55.188 11.388 55.74 11.676 56.22 12.036C56.556 12.3 56.844 12.672 57.084 13.152C57.324 13.608 57.444 14.136 57.444 14.736C57.444 15.384 57.204 15.96 56.724 16.464C56.268 16.968 55.656 17.22 54.888 17.22C54.096 17.22 53.436 16.992 52.908 16.536C52.404 16.08 52.152 15.456 52.152 14.664C52.152 14.04 52.332 13.488 52.692 13.008C53.052 12.528 53.58 12.192 54.276 12C54.204 11.856 54.06 11.736 53.844 11.64C53.628 11.544 53.34 11.496 52.98 11.496C52.5 11.496 52.104 11.58 51.792 11.748C51.48 11.916 51.228 12.144 51.036 12.432C50.772 12.792 50.592 13.32 50.496 14.016C50.4 14.688 50.352 15.732 50.352 17.148V20.424H54.204V21.144H50.352V35.292C50.352 36.468 50.652 37.26 51.252 37.668C51.852 38.052 52.68 38.244 53.736 38.244V39C53.112 38.976 52.236 38.952 51.108 38.928C49.98 38.88 48.792 38.856 47.544 38.856C46.632 38.856 45.732 38.88 44.844 38.928C43.98 38.952 43.32 38.976 42.864 39V38.244C43.704 38.244 44.292 38.064 44.628 37.704C44.988 37.344 45.168 36.66 45.168 35.652V21.144H42.72V20.424H45.168C45.168 19.008 45.24 17.832 45.384 16.896C45.528 15.936 45.768 15.12 46.104 14.448C46.44 13.776 46.884 13.176 47.436 12.648C47.964 12.144 48.66 11.724 49.524 11.388C50.412 11.028 51.36 10.848 52.368 10.848ZM64.1754 19.884C65.9274 19.884 67.4634 20.208 68.7834 20.856C70.1034 21.504 71.1354 22.548 71.8794 23.988C72.6234 25.428 72.9954 27.336 72.9954 29.712C72.9954 32.088 72.6234 33.996 71.8794 35.436C71.1354 36.852 70.1034 37.884 68.7834 38.532C67.4634 39.18 65.9274 39.504 64.1754 39.504C62.4714 39.504 60.9474 39.18 59.6034 38.532C58.2834 37.884 57.2394 36.852 56.4714 35.436C55.7274 33.996 55.3554 32.088 55.3554 29.712C55.3554 27.336 55.7274 25.428 56.4714 23.988C57.2394 22.548 58.2834 21.504 59.6034 20.856C60.9474 20.208 62.4714 19.884 64.1754 19.884ZM64.1754 20.604C63.2154 20.604 62.4114 21.324 61.7634 22.764C61.1154 24.18 60.7914 26.496 60.7914 29.712C60.7914 32.928 61.1154 35.244 61.7634 36.66C62.4114 38.076 63.2154 38.784 64.1754 38.784C65.1594 38.784 65.9634 38.076 66.5874 36.66C67.2354 35.244 67.5594 32.928 67.5594 29.712C67.5594 26.496 67.2354 24.18 66.5874 22.764C65.9634 21.324 65.1594 20.604 64.1754 20.604ZM82.2353 10.812V35.652C82.2353 36.66 82.4033 37.344 82.7393 37.704C83.0993 38.064 83.6993 38.244 84.5393 38.244V39C84.0833 38.976 83.3993 38.952 82.4873 38.928C81.5753 38.88 80.6513 38.856 79.7153 38.856C78.7793 38.856 77.8313 38.88 76.8713 38.928C75.9353 38.952 75.2273 38.976 74.7473 39V38.244C75.5873 38.244 76.1753 38.064 76.5113 37.704C76.8713 37.344 77.0513 36.66 77.0513 35.652V15.132C77.0513 14.052 76.8833 13.26 76.5473 12.756C76.2353 12.228 75.6353 11.964 74.7473 11.964V11.208C75.5153 11.28 76.2593 11.316 76.9793 11.316C77.9633 11.316 78.8993 11.28 79.7873 11.208C80.6753 11.112 81.4913 10.98 82.2353 10.812ZM90.751 11.1C91.759 11.1 92.551 11.352 93.127 11.856C93.727 12.336 94.027 13.008 94.027 13.872C94.027 14.736 93.727 15.42 93.127 15.924C92.551 16.404 91.759 16.644 90.751 16.644C89.743 16.644 88.939 16.404 88.339 15.924C87.763 15.42 87.475 14.736 87.475 13.872C87.475 13.008 87.763 12.336 88.339 11.856C88.939 11.352 89.743 11.1 90.751 11.1ZM93.559 19.992V35.652C93.559 36.66 93.727 37.344 94.063 37.704C94.423 38.064 95.023 38.244 95.863 38.244V39C95.431 38.976 94.759 38.952 93.847 38.928C92.935 38.88 92.011 38.856 91.075 38.856C90.139 38.856 89.191 38.88 88.231 38.928C87.271 38.952 86.551 38.976 86.071 39V38.244C86.911 38.244 87.499 38.064 87.835 37.704C88.195 37.344 88.375 36.66 88.375 35.652V24.312C88.375 23.232 88.207 22.44 87.871 21.936C87.559 21.408 86.959 21.144 86.071 21.144V20.388C86.839 20.46 87.583 20.496 88.303 20.496C89.311 20.496 90.247 20.46 91.111 20.388C91.999 20.292 92.815 20.16 93.559 19.992ZM102.395 39.252C101.315 39.252 100.415 39.048 99.6945 38.64C98.9745 38.232 98.4465 37.692 98.1105 37.02C97.7745 36.324 97.6065 35.568 97.6065 34.752C97.6065 33.72 97.8345 32.88 98.2905 32.232C98.7705 31.584 99.3825 31.056 100.127 30.648C100.871 30.24 101.651 29.904 102.467 29.64C103.307 29.376 104.099 29.124 104.843 28.884C105.611 28.62 106.223 28.32 106.679 27.984C107.159 27.624 107.399 27.168 107.399 26.616V23.808C107.399 23.184 107.291 22.632 107.075 22.152C106.883 21.648 106.571 21.264 106.139 21C105.731 20.736 105.191 20.604 104.519 20.604C104.039 20.604 103.559 20.676 103.079 20.82C102.599 20.94 102.203 21.156 101.891 21.468C102.563 21.708 103.079 22.08 103.439 22.584C103.823 23.064 104.015 23.616 104.015 24.24C104.015 25.056 103.727 25.704 103.151 26.184C102.599 26.664 101.939 26.904 101.171 26.904C100.307 26.904 99.6465 26.64 99.1905 26.112C98.7585 25.56 98.5425 24.9 98.5425 24.132C98.5425 23.436 98.7105 22.86 99.0465 22.404C99.4065 21.948 99.8985 21.516 100.523 21.108C101.195 20.724 101.999 20.424 102.935 20.208C103.895 19.992 104.927 19.884 106.031 19.884C107.135 19.884 108.131 20.004 109.019 20.244C109.907 20.46 110.651 20.868 111.251 21.468C111.803 22.02 112.163 22.704 112.331 23.52C112.499 24.312 112.583 25.32 112.583 26.544V36.336C112.583 36.936 112.643 37.356 112.763 37.596C112.883 37.812 113.087 37.92 113.375 37.92C113.591 37.92 113.795 37.86 113.987 37.74C114.203 37.62 114.431 37.476 114.671 37.308L115.031 37.92C114.527 38.352 113.939 38.688 113.267 38.928C112.619 39.144 111.887 39.252 111.071 39.252C110.183 39.252 109.475 39.132 108.947 38.892C108.419 38.628 108.035 38.28 107.795 37.848C107.579 37.416 107.471 36.912 107.471 36.336C106.895 37.248 106.199 37.968 105.383 38.496C104.567 39 103.571 39.252 102.395 39.252ZM104.951 36.948C105.431 36.948 105.863 36.84 106.247 36.624C106.655 36.384 107.039 36 107.399 35.472V28.092C107.183 28.452 106.883 28.776 106.499 29.064C106.115 29.352 105.707 29.652 105.275 29.964C104.843 30.252 104.423 30.576 104.015 30.936C103.631 31.296 103.319 31.74 103.079 32.268C102.839 32.796 102.719 33.432 102.719 34.176C102.719 35.112 102.923 35.808 103.331 36.264C103.739 36.72 104.279 36.948 104.951 36.948ZM123.043 45.768C121.555 45.768 120.223 45.636 119.047 45.372C117.895 45.132 116.983 44.748 116.311 44.22C115.663 43.716 115.339 43.092 115.339 42.348C115.339 41.604 115.675 40.932 116.347 40.332C117.019 39.756 118.015 39.3 119.335 38.964L119.659 39.54C119.203 39.9 118.867 40.284 118.651 40.692C118.459 41.124 118.363 41.568 118.363 42.024C118.363 43.032 118.819 43.8 119.731 44.328C120.667 44.88 121.927 45.156 123.511 45.156C124.591 45.156 125.551 45.012 126.391 44.724C127.255 44.436 127.927 44.004 128.407 43.428C128.911 42.852 129.163 42.144 129.163 41.304C129.163 40.584 128.899 39.972 128.371 39.468C127.843 38.988 126.787 38.748 125.203 38.748H122.971C121.987 38.748 121.123 38.64 120.379 38.424C119.659 38.208 119.095 37.872 118.687 37.416C118.279 36.936 118.075 36.336 118.075 35.616C118.075 34.608 118.471 33.72 119.263 32.952C120.055 32.184 121.231 31.464 122.791 30.792L123.151 31.08C122.695 31.368 122.263 31.68 121.855 32.016C121.471 32.328 121.279 32.736 121.279 33.24C121.279 34.008 121.759 34.392 122.719 34.392H126.643C127.963 34.392 129.139 34.548 130.171 34.86C131.227 35.172 132.055 35.688 132.655 36.408C133.279 37.104 133.591 38.016 133.591 39.144C133.591 40.32 133.207 41.412 132.439 42.42C131.695 43.428 130.543 44.232 128.983 44.832C127.423 45.456 125.443 45.768 123.043 45.768ZM123.403 31.332C122.035 31.332 120.811 31.128 119.731 30.72C118.651 30.312 117.799 29.688 117.175 28.848C116.551 28.008 116.239 26.928 116.239 25.608C116.239 24.288 116.551 23.208 117.175 22.368C117.799 21.504 118.651 20.88 119.731 20.496C120.811 20.088 122.035 19.884 123.403 19.884C124.771 19.884 125.995 20.088 127.075 20.496C128.155 20.88 129.007 21.504 129.631 22.368C130.255 23.208 130.567 24.288 130.567 25.608C130.567 26.928 130.255 28.008 129.631 28.848C129.007 29.688 128.155 30.312 127.075 30.72C125.995 31.128 124.771 31.332 123.403 31.332ZM123.403 30.684C124.051 30.684 124.555 30.324 124.915 29.604C125.275 28.86 125.455 27.528 125.455 25.608C125.455 23.688 125.275 22.368 124.915 21.648C124.555 20.904 124.051 20.532 123.403 20.532C122.779 20.532 122.275 20.904 121.891 21.648C121.531 22.368 121.351 23.688 121.351 25.608C121.351 27.528 121.531 28.86 121.891 29.604C122.275 30.324 122.779 30.684 123.403 30.684ZM129.019 22.98L128.299 22.728C128.659 21.792 129.235 21.012 130.027 20.388C130.843 19.764 131.719 19.452 132.655 19.452C133.423 19.452 133.999 19.668 134.383 20.1C134.791 20.508 134.995 21.048 134.995 21.72C134.995 22.44 134.803 22.98 134.419 23.34C134.035 23.676 133.603 23.844 133.123 23.844C132.715 23.844 132.331 23.7 131.971 23.412C131.635 23.124 131.443 22.692 131.395 22.116C131.347 21.516 131.551 20.748 132.007 19.812L132.259 20.028C131.347 20.364 130.663 20.76 130.207 21.216C129.751 21.648 129.355 22.236 129.019 22.98ZM144.683 19.884C146.795 19.884 148.451 20.508 149.651 21.756C150.851 23.004 151.451 25.044 151.451 27.876H139.607L139.535 27.192H146.915C146.939 26.016 146.867 24.936 146.699 23.952C146.531 22.944 146.267 22.14 145.907 21.54C145.547 20.94 145.067 20.64 144.467 20.64C143.627 20.64 142.907 21.168 142.307 22.224C141.731 23.28 141.383 25.032 141.263 27.48L141.371 27.696C141.347 27.984 141.323 28.284 141.299 28.596C141.299 28.908 141.299 29.232 141.299 29.568C141.299 31.224 141.527 32.568 141.983 33.6C142.463 34.632 143.063 35.388 143.783 35.868C144.503 36.324 145.235 36.552 145.979 36.552C146.483 36.552 146.999 36.48 147.527 36.336C148.079 36.168 148.631 35.88 149.183 35.472C149.735 35.04 150.251 34.44 150.731 33.672L151.379 33.888C151.091 34.8 150.635 35.688 150.011 36.552C149.387 37.416 148.595 38.124 147.635 38.676C146.675 39.228 145.523 39.504 144.179 39.504C142.547 39.504 141.107 39.156 139.859 38.46C138.611 37.764 137.627 36.708 136.907 35.292C136.211 33.876 135.863 32.076 135.863 29.892C135.863 27.66 136.235 25.8 136.979 24.312C137.747 22.824 138.791 21.72 140.111 21C141.455 20.256 142.979 19.884 144.683 19.884Z" fill="#256963"/>
</svg>
