<svg width="33" height="31" viewBox="0 0 33 31" fill="none" xmlns="http://www.w3.org/2000/svg">
<path d="M9.34676 14.0218C9.45085 13.9113 9.57571 13.8223 9.7142 13.76C9.8527 13.6976 10.0021 13.6632 10.1539 13.6587C10.3057 13.6541 10.4569 13.6795 10.5989 13.7334C10.7409 13.7872 10.8709 13.8686 10.9814 13.9727C16.3023 18.985 21.6413 22.0346 27.9241 23.5891C28.7718 21.2766 28.8469 18.7314 28.1149 16.2483C27.1436 12.9537 24.8817 10.0834 21.5755 7.94791C18.6242 6.04154 15.6743 5.54507 12.8206 5.06523C9.22029 4.45964 5.81947 3.8873 2.57402 0.451071C2.21269 0.0709537 1.72057 -0.0815267 1.25012 0.0420475C0.71246 0.186579 0.351855 0.611501 0.17914 1.31392C-0.225547 2.95797 0.0346088 7.56562 1.17279 12.4298C3.00039 20.2446 5.91703 24.199 8.04236 26.1408C10.7885 28.6477 14.3743 30.0359 17.9377 30.0359C18.6094 30.037 19.2802 29.9877 19.9445 29.8885C22.9587 29.4318 25.4678 27.9178 26.882 25.7151C20.415 24.0328 14.8903 20.8336 9.39373 15.6586C9.28298 15.5544 9.19389 15.4293 9.13158 15.2905C9.06926 15.1517 9.03493 15.002 9.03057 14.85C9.02621 14.6979 9.05189 14.5465 9.10615 14.4044C9.1604 14.2623 9.24217 14.1323 9.34676 14.0218Z" fill="#256963"/>
<path d="M31.4658 24.2973C30.2496 24.1101 29.0717 23.8753 27.9248 23.5912C27.689 24.2349 27.3956 24.8561 27.0482 25.447C26.9955 25.5374 26.9398 25.627 26.8827 25.7151C28.2776 26.0762 29.6901 26.3657 31.1146 26.5823C31.2662 26.609 31.4216 26.6051 31.5716 26.5709C31.7217 26.5367 31.8634 26.4729 31.9885 26.3832C32.1135 26.2936 32.2195 26.1798 32.3 26.0487C32.3806 25.9175 32.4341 25.7716 32.4575 25.6195C32.481 25.4674 32.4738 25.3122 32.4364 25.1629C32.3991 25.0136 32.3323 24.8732 32.24 24.7501C32.1477 24.6269 32.0317 24.5234 31.8989 24.4457C31.7661 24.3679 31.6191 24.3175 31.4665 24.2973H31.4658Z" fill="#256963"/>
</svg>
