<svg width="19" height="19" viewBox="0 0 19 19" fill="none" xmlns="http://www.w3.org/2000/svg">
<path fill-rule="evenodd" clip-rule="evenodd" d="M4.49432 7.37891C4.49432 4.72074 6.7619 2.5625 9.55682 2.5625C12.3517 2.5625 14.6193 4.72074 14.6193 7.37891C14.6193 10.44 11.2443 15.2852 10.0051 16.9586C9.95363 17.0293 9.8862 17.0868 9.8083 17.1265C9.7304 17.1661 9.64423 17.1868 9.55682 17.1868C9.46941 17.1868 9.30534 17.1265 9.30534 17.1265C9.30534 17.1265 9.16002 17.0293 9.10858 16.9586C9.10858 16.9586 4.49432 10.4375 4.49432 7.37891ZM12.5099 7.625C12.5099 9.25597 11.1878 10.5781 9.55682 10.5781C7.92586 10.5781 6.6037 9.25597 6.6037 7.625C6.6037 5.99403 7.92586 4.67188 9.55682 4.67188C11.1878 4.67188 12.5099 5.99403 12.5099 7.625Z" fill="#616161"/>
<path d="M10.0051 16.9586L9.55301 16.6239L9.55029 16.6276L10.0051 16.9586ZM9.30534 17.1265L8.99271 17.5941C9.0297 17.6188 9.0695 17.6391 9.11126 17.6544L9.30534 17.1265ZM9.10858 16.9586L8.64936 17.2836L8.6538 17.2897L9.10858 16.9586ZM9.55682 2C6.47792 2 3.93182 4.38406 3.93182 7.37891H5.05682C5.05682 5.05742 7.04589 3.125 9.55682 3.125V2ZM15.1818 7.37891C15.1818 4.38406 12.6357 2 9.55682 2V3.125C12.0678 3.125 14.0568 5.05742 14.0568 7.37891H15.1818ZM10.4571 17.2934C11.0837 16.4473 12.2534 14.7954 13.269 12.9617C14.269 11.1561 15.1818 9.06727 15.1818 7.37891H14.0568C14.0568 8.7516 13.2822 10.6159 12.2848 12.4166C11.3031 14.1891 10.1657 15.7965 9.55302 16.6239L10.4571 17.2934ZM10.0635 17.6278C10.2204 17.5479 10.3562 17.432 10.4598 17.2897L9.55029 16.6276C9.55104 16.6266 9.55202 16.6257 9.55315 16.6252L10.0635 17.6278ZM9.55682 17.7493C9.73291 17.7493 9.90651 17.7076 10.0635 17.6278L9.55315 16.6252C9.5543 16.6246 9.55556 16.6243 9.55682 16.6243V17.7493ZM9.30534 17.1265C9.11126 17.6544 9.1113 17.6544 9.11135 17.6544C9.11137 17.6545 9.11141 17.6545 9.11144 17.6545C9.11151 17.6545 9.11158 17.6545 9.11165 17.6546C9.11179 17.6546 9.11194 17.6547 9.1121 17.6547C9.11242 17.6548 9.11278 17.655 9.11319 17.6551C9.114 17.6554 9.11498 17.6558 9.11611 17.6562C9.11838 17.657 9.1213 17.658 9.12479 17.6593C9.13175 17.6617 9.14113 17.665 9.1524 17.6688C9.17463 17.6763 9.20583 17.6865 9.24149 17.6968C9.29126 17.7113 9.42409 17.7493 9.55682 17.7493V16.6243C9.59035 16.6243 9.60634 16.6289 9.59326 16.6262C9.58532 16.6246 9.57221 16.6214 9.55512 16.6164C9.53884 16.6117 9.52355 16.6067 9.51229 16.6029C9.50681 16.6011 9.50269 16.5997 9.50034 16.5988C9.49918 16.5984 9.49848 16.5982 9.4983 16.5981C9.49821 16.5981 9.49826 16.5981 9.49844 16.5981C9.49854 16.5982 9.49866 16.5982 9.49883 16.5983C9.49891 16.5983 9.499 16.5983 9.4991 16.5984C9.49915 16.5984 9.4992 16.5984 9.49926 16.5984C9.49929 16.5984 9.49933 16.5985 9.49934 16.5985C9.49939 16.5985 9.49943 16.5985 9.30534 17.1265ZM8.6538 17.2897C8.73192 17.397 8.84082 17.482 8.88179 17.5137C8.91115 17.5365 8.9377 17.5557 8.95685 17.5693C8.96656 17.5762 8.97472 17.5818 8.98081 17.586C8.98387 17.5881 8.98643 17.5898 8.98843 17.5912C8.98943 17.5919 8.99029 17.5925 8.991 17.5929C8.99136 17.5932 8.99168 17.5934 8.99197 17.5936C8.99211 17.5937 8.99225 17.5938 8.99237 17.5938C8.99243 17.5939 8.99249 17.5939 8.99255 17.594C8.99258 17.594 8.99262 17.594 8.99263 17.594C8.99267 17.5941 8.99271 17.5941 9.30534 17.1265C9.61797 16.6588 9.61801 16.6589 9.61805 16.6589C9.61806 16.6589 9.6181 16.6589 9.61813 16.6589C9.61817 16.659 9.61822 16.659 9.61826 16.659C9.61835 16.6591 9.61843 16.6591 9.61851 16.6592C9.61865 16.6593 9.61876 16.6594 9.61885 16.6594C9.61901 16.6595 9.61905 16.6596 9.61897 16.6595C9.61882 16.6594 9.6182 16.659 9.61718 16.6583C9.61513 16.6569 9.61153 16.6544 9.60682 16.6511C9.59711 16.6442 9.58412 16.6347 9.57072 16.6244C9.55665 16.6135 9.54631 16.6048 9.54033 16.5993C9.53047 16.5903 9.54363 16.6005 9.56336 16.6276L8.6538 17.2897ZM3.93182 7.37891C3.93182 8.25912 4.25695 9.32523 4.69583 10.3819C5.14103 11.4537 5.73043 12.5783 6.31343 13.5955C6.89742 14.6143 7.48058 15.535 7.91733 16.2005C8.13588 16.5336 8.31819 16.8033 8.44617 16.9902C8.51017 17.0837 8.56061 17.1565 8.59523 17.2062C8.61254 17.231 8.6259 17.2501 8.63502 17.2631C8.63958 17.2696 8.64308 17.2746 8.64549 17.278C8.6467 17.2797 8.64763 17.281 8.64828 17.2819C8.64861 17.2824 8.64887 17.2828 8.64905 17.283C8.64915 17.2832 8.64924 17.2833 8.64928 17.2834C8.64935 17.2835 8.64941 17.2835 9.10858 16.9586C9.56776 16.6337 9.56777 16.6338 9.56777 16.6338C9.56775 16.6337 9.56773 16.6337 9.56769 16.6336C9.56759 16.6335 9.56743 16.6333 9.5672 16.6329C9.56673 16.6323 9.56599 16.6312 9.56498 16.6298C9.56295 16.6269 9.55984 16.6225 9.55567 16.6166C9.54733 16.6047 9.53478 16.5868 9.5183 16.5631C9.48532 16.5158 9.43663 16.4455 9.37445 16.3547C9.25009 16.173 9.07191 15.9094 8.85787 15.5833C8.42946 14.9305 7.85905 14.0297 7.28947 13.036C6.71891 12.0406 6.15475 10.9614 5.73477 9.95031C5.30848 8.92399 5.05682 8.02799 5.05682 7.37891H3.93182ZM9.55682 11.1406C11.4984 11.1406 13.0724 9.56663 13.0724 7.625H11.9474C11.9474 8.94531 10.8771 10.0156 9.55682 10.0156V11.1406ZM6.0412 7.625C6.0412 9.56663 7.6152 11.1406 9.55682 11.1406V10.0156C8.23652 10.0156 7.1662 8.94531 7.1662 7.625H6.0412ZM9.55682 4.10938C7.6152 4.10938 6.0412 5.68337 6.0412 7.625H7.1662C7.1662 6.30469 8.23652 5.23438 9.55682 5.23438V4.10938ZM13.0724 7.625C13.0724 5.68337 11.4984 4.10938 9.55682 4.10938V5.23438C10.8771 5.23438 11.9474 6.30469 11.9474 7.625H13.0724Z" fill="#616161"/>
</svg>
