<svg width="416" height="416" viewBox="0 0 416 416" fill="none" xmlns="http://www.w3.org/2000/svg">
<circle cx="208" cy="208" r="147" fill="#616161"/>
<path d="M208 0C93.31 0 0 93.31 0 208C0 322.69 93.31 416 208 416C322.69 416 416 322.69 416 208C416 93.31 322.69 0 208 0ZM283.31 260.69C284.858 262.161 286.096 263.927 286.951 265.884C287.806 267.841 288.261 269.949 288.288 272.085C288.316 274.22 287.915 276.34 287.111 278.318C286.306 280.296 285.113 282.093 283.603 283.603C282.093 285.113 280.296 286.306 278.318 287.111C276.34 287.915 274.22 288.316 272.085 288.288C269.949 288.261 267.841 287.806 265.884 286.951C263.927 286.096 262.161 284.858 260.69 283.31L208 230.63L155.31 283.31C152.285 286.184 148.257 287.762 144.085 287.709C139.913 287.656 135.926 285.974 132.976 283.024C130.026 280.074 128.344 276.087 128.291 271.915C128.238 267.743 129.816 263.715 132.69 260.69L185.37 208L132.69 155.31C129.816 152.285 128.238 148.257 128.291 144.085C128.344 139.913 130.026 135.926 132.976 132.976C135.926 130.026 139.913 128.344 144.085 128.291C148.257 128.238 152.285 129.816 155.31 132.69L208 185.37L260.69 132.69C263.715 129.816 267.743 128.238 271.915 128.291C276.087 128.344 280.074 130.026 283.024 132.976C285.974 135.926 287.656 139.913 287.709 144.085C287.762 148.257 286.184 152.285 283.31 155.31L230.63 208L283.31 260.69Z" fill="#D9D9D9"/>
</svg>
