<svg width="47" height="47" viewBox="0 0 47 47" fill="none" xmlns="http://www.w3.org/2000/svg">
<rect width="47" height="47" fill="#E7E7E7"/>
<path d="M17.3468 21.0218C17.4509 20.9113 17.5757 20.8223 17.7142 20.76C17.8527 20.6976 18.0021 20.6632 18.1539 20.6587C18.3057 20.6541 18.4569 20.6795 18.5989 20.7334C18.7409 20.7872 18.8709 20.8686 18.9814 20.9727C24.3023 25.985 29.6413 29.0346 35.9241 30.5891C36.7718 28.2766 36.8469 25.7314 36.1149 23.2483C35.1436 19.9537 32.8817 17.0834 29.5755 14.9479C26.6242 13.0415 23.6743 12.5451 20.8206 12.0652C17.2203 11.4596 13.8195 10.8873 10.574 7.45107C10.2127 7.07095 9.72057 6.91847 9.25012 7.04205C8.71246 7.18658 8.35185 7.6115 8.17914 8.31392C7.77445 9.95797 8.03461 14.5656 9.17279 19.4298C11.0004 27.2446 13.917 31.199 16.0424 33.1408C18.7885 35.6477 22.3743 37.0359 25.9377 37.0359C26.6094 37.037 27.2802 36.9877 27.9445 36.8885C30.9587 36.4318 33.4678 34.9178 34.882 32.7151C28.415 31.0328 22.8903 27.8336 17.3937 22.6586C17.283 22.5544 17.1939 22.4293 17.1316 22.2905C17.0693 22.1517 17.0349 22.002 17.0306 21.85C17.0262 21.6979 17.0519 21.5465 17.1061 21.4044C17.1604 21.2623 17.2422 21.1323 17.3468 21.0218Z" fill="#616161"/>
<path d="M39.4658 31.2973C38.2496 31.1101 37.0717 30.8753 35.9248 30.5912C35.689 31.2349 35.3956 31.8561 35.0482 32.447C34.9955 32.5374 34.9398 32.627 34.8827 32.7151C36.2776 33.0762 37.6901 33.3657 39.1146 33.5823C39.2662 33.609 39.4216 33.6051 39.5716 33.5709C39.7217 33.5367 39.8634 33.4729 39.9885 33.3832C40.1135 33.2936 40.2195 33.1798 40.3 33.0487C40.3806 32.9175 40.4341 32.7716 40.4575 32.6195C40.481 32.4674 40.4738 32.3122 40.4364 32.1629C40.3991 32.0136 40.3323 31.8732 40.24 31.7501C40.1477 31.6269 40.0317 31.5234 39.8989 31.4457C39.7661 31.3679 39.6191 31.3175 39.4665 31.2973H39.4658Z" fill="#616161"/>
</svg>
