<svg width="57" height="57" viewBox="0 0 57 57" fill="none" xmlns="http://www.w3.org/2000/svg">
<path d="M50.088 18.7439C49.7621 18.4157 49.3743 18.1554 48.947 17.9781C48.5198 17.8008 48.0617 17.71 47.5991 17.711H40.5667V15.9529C40.5667 12.689 39.27 9.55867 36.9621 7.25069C34.6541 4.94271 31.5238 3.6461 28.2598 3.6461C24.9959 3.6461 21.8656 4.94271 19.5576 7.25069C17.2496 9.55867 15.953 12.689 15.953 15.9529V17.711H8.92053C7.98797 17.711 7.0936 18.0815 6.43418 18.7409C5.77476 19.4003 5.4043 20.2947 5.4043 21.2273V44.9619C5.4043 49.2473 9.03041 52.8734 13.3158 52.8734H43.2038C45.2767 52.8741 47.2676 52.0636 48.7507 50.6153C49.497 49.9033 50.0914 49.0474 50.4978 48.0994C50.9042 47.1513 51.1143 46.1307 51.1154 45.0992V21.2273C51.1168 20.766 51.0267 20.309 50.8504 19.8827C50.674 19.4564 50.4149 19.0694 50.088 18.7439ZM19.4692 15.9529C19.4692 13.6215 20.3954 11.3856 22.0439 9.73704C23.6925 8.08849 25.9284 7.16234 28.2598 7.16234C30.5912 7.16234 32.8272 8.08849 34.4757 9.73704C36.1243 11.3856 37.0504 13.6215 37.0504 15.9529V17.711H19.4692V15.9529ZM40.5667 26.5016C40.5667 29.7656 39.27 32.8959 36.9621 35.2039C34.6541 37.5118 31.5238 38.8085 28.2598 38.8085C24.9959 38.8085 21.8656 37.5118 19.5576 35.2039C17.2496 32.8959 15.953 29.7656 15.953 26.5016V24.7435C15.953 24.2772 16.1382 23.8301 16.4679 23.5003C16.7977 23.1706 17.2448 22.9854 17.7111 22.9854C18.1774 22.9854 18.6246 23.1706 18.9543 23.5003C19.284 23.8301 19.4692 24.2772 19.4692 24.7435V26.5016C19.4692 28.833 20.3954 31.069 22.0439 32.7175C23.6925 34.3661 25.9284 35.2922 28.2598 35.2922C30.5912 35.2922 32.8272 34.3661 34.4757 32.7175C36.1243 31.069 37.0504 28.833 37.0504 26.5016V24.7435C37.0504 24.2772 37.2356 23.8301 37.5654 23.5003C37.8951 23.1706 38.3423 22.9854 38.8085 22.9854C39.2748 22.9854 39.722 23.1706 40.0517 23.5003C40.3814 23.8301 40.5667 24.2772 40.5667 24.7435V26.5016Z" fill="#256963"/>
</svg>
