<svg width="51" height="51" viewBox="0 0 51 51" fill="none" xmlns="http://www.w3.org/2000/svg">
<path fill-rule="evenodd" clip-rule="evenodd" d="M5.1554 48.5674H47.3429C47.7573 48.5674 48.1547 48.4028 48.4478 48.1097C48.7408 47.8167 48.9054 47.4193 48.9054 47.0049C48.9054 46.5905 48.7408 46.1931 48.4478 45.9C48.1547 45.607 47.7573 45.4424 47.3429 45.4424H5.1554V3.25488C5.1554 2.84048 4.99078 2.44305 4.69775 2.15003C4.40472 1.857 4.0073 1.69238 3.5929 1.69238C3.17849 1.69238 2.78107 1.857 2.48804 2.15003C2.19502 2.44305 2.0304 2.84048 2.0304 3.25488V45.4424C2.0304 46.2712 2.35964 47.066 2.94569 47.6521C3.53174 48.2381 4.32659 48.5674 5.1554 48.5674ZM11.796 42.3174H15.7023C16.6347 42.3174 17.5289 41.947 18.1882 41.2877C18.8475 40.6284 19.2179 39.7342 19.2179 38.8018V23.958C19.2179 23.0256 18.8475 22.1314 18.1882 21.4721C17.5289 20.8128 16.6347 20.4424 15.7023 20.4424H11.796C10.8636 20.4424 9.96941 20.8128 9.3101 21.4721C8.65079 22.1314 8.2804 23.0256 8.2804 23.958V38.8018C8.2804 39.7342 8.65079 40.6284 9.3101 41.2877C9.96941 41.947 10.8636 42.3174 11.796 42.3174ZM29.7648 42.3174H25.8585C24.9261 42.3174 24.0319 41.947 23.3726 41.2877C22.7133 40.6284 22.3429 39.7342 22.3429 38.8018V19.2705C22.3429 18.3381 22.7133 17.4439 23.3726 16.7846C24.0319 16.1253 24.9261 15.7549 25.8585 15.7549H29.7648C30.6972 15.7549 31.5914 16.1253 32.2507 16.7846C32.91 17.4439 33.2804 18.3381 33.2804 19.2705V38.8018C33.2804 39.7342 32.91 40.6284 32.2507 41.2877C31.5914 41.947 30.6972 42.3174 29.7648 42.3174ZM39.8859 42.3174H43.7922C44.7246 42.3174 45.6188 41.947 46.2781 41.2877C46.9374 40.6284 47.3078 39.7342 47.3078 38.8018V13.0205C47.3078 12.0881 46.9374 11.1939 46.2781 10.5346C45.6188 9.87528 44.7246 9.50488 43.7922 9.50488H39.8859C38.9535 9.50488 38.0593 9.87528 37.4 10.5346C36.7407 11.1939 36.3703 12.0881 36.3703 13.0205V38.8018C36.3703 39.7342 36.7407 40.6284 37.4 41.2877C38.0593 41.947 38.9535 42.3174 39.8859 42.3174Z" fill="#256963"/>
</svg>
