<svg width="57" height="57" viewBox="0 0 57 57" fill="none" xmlns="http://www.w3.org/2000/svg">
<path d="M28.7478 5.40468C15.8937 5.23107 5.39995 15.7248 5.57357 28.5789C5.74498 40.9066 15.7827 50.9443 28.1104 51.1157C40.9667 51.2916 51.4582 40.7978 51.2824 27.9438C51.1132 15.6139 41.0755 5.5761 28.7478 5.40468ZM28.3434 22.1189C28.3665 21.987 28.3917 21.8552 28.4214 21.7244C28.6989 20.4411 29.3173 19.2564 30.2114 18.295C31.6278 16.7863 33.6353 15.9534 35.8648 15.9534C36.8028 15.9495 37.7344 16.1079 38.6185 16.4215C39.7174 16.8128 40.707 17.4607 41.5051 18.3115C42.6791 19.5804 43.3779 21.2164 43.483 22.9419C43.5134 23.3589 43.5134 23.7776 43.483 24.1946C43.3984 25.3764 43.0927 26.5318 42.5819 27.6009C42.5263 27.7174 42.468 27.8328 42.4072 27.947C42.2853 28.1745 42.1545 28.3976 42.0139 28.6129C41.7339 29.0429 41.4166 29.4474 41.0656 29.8216C39.6239 31.36 37.7779 32.2094 35.867 32.2094C35.1505 32.2089 34.4389 32.0909 33.7606 31.86C33.5327 31.7826 33.309 31.6935 33.0903 31.5929C32.1745 31.1657 31.3508 30.5641 30.6652 29.8216C29.2381 28.2737 28.3849 26.2834 28.2478 24.1825C28.228 23.8982 28.2214 23.617 28.228 23.3386C28.2365 22.9305 28.2751 22.5235 28.3434 22.1211V22.1189ZM11.8907 24.7934C11.9442 24.0094 12.1377 23.2412 12.4621 22.5255C12.5536 22.3261 12.6556 22.1317 12.7676 21.9431C12.9916 21.565 13.2565 21.2127 13.5576 20.8926C14.0037 20.4167 14.523 20.0154 15.096 19.7037C15.3821 19.5473 15.6801 19.4136 15.9871 19.3037C17.1636 18.8922 18.4285 18.8016 19.6517 19.0411C20.9478 19.2918 22.1315 19.9455 23.0339 20.9091C24.1046 22.0649 24.7081 23.5772 24.7272 25.1527C24.7327 25.3846 24.7272 25.6175 24.7107 25.8538C24.6436 26.7585 24.4206 27.6447 24.0514 28.4734C23.8746 28.8723 23.664 29.2554 23.4218 29.6184C22.9559 30.3223 22.3697 30.9386 21.69 31.4391C21.5252 31.5567 21.3538 31.6666 21.1769 31.7764C20.8289 31.9837 20.4607 32.1549 20.078 32.2874C19.5058 32.4874 18.9041 32.5899 18.2979 32.5907C18.1958 32.5907 18.0936 32.5907 17.9925 32.5819C17.7906 32.5708 17.5895 32.5481 17.3903 32.5138C17.1921 32.4793 16.9958 32.4341 16.8024 32.3786C16.5119 32.2947 16.2283 32.1885 15.9542 32.061C15.8619 32.0182 15.7717 31.9731 15.6816 31.9259C13.7038 30.8831 12.2127 28.7217 11.9204 26.1988C11.9072 26.0834 11.8962 25.9681 11.8885 25.8516C11.8637 25.4993 11.8644 25.1456 11.8907 24.7934ZM17.8156 44.4184C14.8899 42.49 12.5386 39.808 11.0094 36.6552C10.9595 36.5544 10.9501 36.4383 10.9832 36.3308C11.0164 36.2232 11.0894 36.1325 11.1875 36.0772C13.2291 34.929 15.8366 34.3037 18.3001 34.3037C20.1681 34.3037 21.6735 34.5235 22.991 34.9499C23.1404 34.999 23.2738 35.0873 23.3774 35.2056C23.4811 35.3239 23.551 35.4678 23.5801 35.6224C23.6092 35.7769 23.5963 35.9364 23.5427 36.0842C23.4891 36.2321 23.3969 36.3629 23.2756 36.4629C20.7099 38.5507 19.0561 41.1373 18.2793 44.2371C18.2676 44.2845 18.2448 44.3284 18.2126 44.3652C18.1805 44.4019 18.1399 44.4304 18.0945 44.4481C18.049 44.4659 17.9999 44.4725 17.9514 44.4673C17.9028 44.4621 17.8563 44.4454 17.8156 44.4184ZM28.4291 47.5995C25.9552 47.602 23.504 47.1274 21.2098 46.2018C21.1161 46.1631 21.0386 46.0931 20.9905 46.0038C20.9425 45.9145 20.9268 45.8113 20.9461 45.7117C20.9901 45.4865 21.0384 45.281 21.0813 45.1096C21.8636 41.9856 23.802 39.3957 26.6853 37.6178C29.2444 36.041 32.509 35.1729 35.8626 35.1729C39.2866 35.1729 42.4556 36.0058 45.0356 37.5804C45.1013 37.6216 45.1485 37.6866 45.1671 37.7619C45.1858 37.8371 45.1745 37.9166 45.1356 37.9837C43.4341 40.9067 40.9963 43.3328 38.0649 45.02C35.1336 46.7071 31.8113 47.5965 28.4291 47.5995Z" fill="#256963"/>
<path d="M24.7118 25.8483C24.7283 25.612 24.7338 25.3791 24.7283 25.1472C24.7341 25.378 24.7286 25.6117 24.7118 25.8483Z" fill="#256963"/>
<path d="M11.9226 26.1933C12.2149 28.7206 13.7093 30.8776 15.6838 31.9204C13.7049 30.8776 12.2149 28.7162 11.9226 26.1933Z" fill="#256963"/>
<path d="M28.2467 24.1946C28.2269 23.9103 28.2203 23.629 28.2269 23.3507C28.2203 23.6254 28.2269 23.9067 28.2467 24.1946Z" fill="#256963"/>
</svg>
